<?xml version="1.0" encoding="UTF-8" standalone="no"?><!DOCTYPE svg PUBLIC "-//W3C//DTD SVG 1.1//EN" "http://www.w3.org/Graphics/SVG/1.1/DTD/svg11.dtd"><svg width="100%" height="100%" viewBox="0 0 1538 1536" version="1.1" xmlns="http://www.w3.org/2000/svg" xmlns:xlink="http://www.w3.org/1999/xlink" xml:space="preserve" xmlns:serif="http://www.serif.com/" style="fill-rule:evenodd;clip-rule:evenodd;stroke-linecap:round;stroke-linejoin:round;stroke-miterlimit:1.5;"><rect id="Ver-1" serif:id="Ver 1" x="0" y="0" width="1537.5" height="1536" style="fill:none;"/><g id="Ver-11" serif:id="Ver 1"><g id="_1" serif:id="1"><path d="M633.75,957c0,-15.587 -270,-162 -270,-162c0,0 -270,147.784 -270,162l0,486c0,29.803 24.197,54 54,54l432,0c29.803,0 54,-24.197 54,-54l0,-486Z" style="fill:#ff5f51;"/><path d="M93.75,957l270,-162l270,162" style="fill:none;stroke:#3d3d3d;stroke-width:100px;"/><path d="M471.75,1146c-0.249,-22.443 -8.268,-26.794 -27,-27c-33.387,-0.366 -125.764,-0.47 -162,0c-17.161,0.222 -26.93,0.254 -27,27l0,351l216,0l0,-351Z" style="fill:#a98476;"/></g><g id="_2" serif:id="2"><path d="M1443.75,957c0,-15.587 -270,-162 -270,-162c0,0 -270,147.784 -270,162l0,486c0,29.803 24.197,54 54,54l432,0c29.803,0 54,-24.197 54,-54l0,-486Z" style="fill:#ffb551;"/><path d="M1281.75,1146c-0.249,-22.443 -8.268,-26.794 -27,-27c-33.387,-0.366 -125.764,-0.47 -162,0c-17.161,0.222 -26.93,0.254 -27,27l0,351l216,0l0,-351Z" style="fill:#a55030;"/><path d="M903.75,957l270,-162l270,162" style="fill:none;stroke:#d9d9d9;stroke-width:100px;"/></g><g id="_3" serif:id="3"><path d="M1038.75,255c0,-15.587 -270,-162 -270,-162c0,0 -270,147.784 -270,162l0,486c0,29.803 24.197,54 54,54l432,0c29.803,0 54,-24.197 54,-54l0,-486Z" style="fill:#82e3b7;"/><path d="M876.75,444c-0.249,-22.443 -8.268,-26.794 -27,-27c-33.387,-0.366 -125.764,-0.47 -162,0c-17.161,0.222 -26.93,0.254 -27,27l0,351l216,0l0,-351Z" style="fill:#c29483;"/><path d="M498.75,255l270,-162l270,162" style="fill:none;stroke:#878787;stroke-width:100px;"/></g></g></svg>